{"accessors":[{"bufferView":2,"componentType":5126,"count":4330,"max":[3.5946791172027588,14.908513069152832,3.9458694458007812],"min":[-3.7004525661468506,9.7565536499023438,-3.9736957550048828],"type":"VEC3"},{"bufferView":2,"byteOffset":51960,"componentType":5126,"count":4330,"max":[1,0.99992465972900391,0.99921989440917969],"min":[-1,-0.999611496925354,-0.99705487489700317],"type":"VEC3"},{"bufferView":1,"componentType":5126,"count":4330,"max":[1,1],"min":[0,0],"type":"VEC2"},{"bufferView":3,"componentType":5126,"count":4330,"max":[0.99997669458389282,0.99915987253189087,0.99789911508560181,1],"min":[-0.99999552965164185,-0.99998718500137329,-0.99992668628692627,-1],"type":"VEC4"},{"bufferView":0,"componentType":5125,"count":6150,"max":[4329],"min":[0],"type":"SCALAR"},{"bufferView":2,"byteOffset":103920,"componentType":5126,"count":351,"max":[3.4297499656677246,15.048084259033203,3.3967852592468262],"min":[-3.4297499656677246,10.885475158691406,-3.4627149105072021],"type":"VEC3"},{"bufferView":2,"byteOffset":108132,"componentType":5126,"count":351,"max":[0.98078656196594238,1,0.98079276084899902],"min":[-0.98079568147659302,-0.77848809957504272,-0.98078560829162598],"type":"VEC3"},{"bufferView":1,"byteOffset":34640,"componentType":5126,"count":351,"max":[1,1],"min":[0,0],"type":"VEC2"},{"bufferView":3,"byteOffset":69280,"componentType":5126,"count":351,"max":[0.9919859766960144,0.97740006446838379,0.79854297637939453,1],"min":[-0.93094104528427124,-1,-0.97051137685775757,-1],"type":"VEC4"},{"bufferView":0,"byteOffset":24600,"componentType":5125,"count":528,"max":[350],"min":[0],"type":"SCALAR"},{"bufferView":2,"byteOffset":112344,"componentType":5126,"count":544,"max":[8.8680696487426758,13.003383636474609,2.4128680229187012],"min":[-8.8680696487426758,9.6894826889038086,-2.6498913764953613],"type":"VEC3"},{"bufferView":2,"byteOffset":118872,"componentType":5126,"count":544,"max":[0.96813994646072388,0.9900059700012207,0.99588489532470703],"min":[-0.96097666025161743,-0.93854206800460815,-0.98015797138214111],"type":"VEC3"},{"bufferView":1,"byteOffset":37448,"componentType":5126,"count":544,"max":[1,1],"min":[0,0],"type":"VEC2"},{"bufferView":3,"byteOffset":74896,"componentType":5126,"count":544,"max":[0.84265512228012085,0.95220130681991577,0.94062614440917969,1],"min":[-0.8975290060043335,-0.98701661825180054,-0.99979543685913086,1],"type":"VEC4"},{"bufferView":0,"byteOffset":26712,"componentType":5125,"count":684,"max":[543],"min":[0],"type":"SCALAR"},{"bufferView":2,"byteOffset":125400,"componentType":5126,"count":549,"max":[11.304730415344238,9.9502429962158203,1.7337697744369507],"min":[-11.304730415344238,5.1863341331481934,-1.7678582668304443],"type":"VEC3"},{"bufferView":2,"byteOffset":131988,"componentType":5126,"count":549,"max":[0.97650933265686035,0.91851305961608887,0.99879235029220581],"min":[-0.94136637449264526,-0.97673159837722778,-0.99674087762832642],"type":"VEC3"},{"bufferView":1,"byteOffset":41800,"componentType":5126,"count":549,"max":[1,1],"min":[0,0],"type":"VEC2"},{"bufferView":3,"byteOffset":83600,"componentType":5126,"count":549,"max":[0.74775594472885132,0.9617803692817688,0.99984735250473022,1],"min":[-0.77959591150283813,-0.91726493835449219,-0.99947178363800049,1],"type":"VEC4"},{"bufferView":0,"byteOffset":29448,"componentType":5125,"count":672,"max":[548],"min":[0],"type":"SCALAR"},{"bufferView":2,"byteOffset":138576,"componentType":5126,"count":1808,"max":[10.87446403503418,10.87446403503418,1.4591567516326904],"min":[-10.87446403503418,-10.87446403503418,-1.4629665613174438],"type":"VEC3"},{"bufferView":2,"byteOffset":160272,"componentType":5126,"count":1808,"max":[0.99880808591842651,0.99880808591842651,1],"min":[-0.99880808591842651,-0.99880808591842651,-1],"type":"VEC3"},{"bufferView":1,"byteOffset":46192,"componentType":5126,"count":1808,"max":[1,1],"min":[0,0],"type":"VEC2"},{"bufferView":3,"byteOffset":92384,"componentType":5126,"count":1808,"max":[0.69975191354751587,0.69887936115264893,1,1],"min":[-0.69865041971206665,-0.98922097682952881,-1,1],"type":"VEC4"},{"bufferView":0,"byteOffset":32136,"componentType":5125,"count":3072,"max":[1807],"min":[0],"type":"SCALAR"}],"asset":{"generator":"Sketchfab (OSG glTF plugin)","version":"2.0"},"bufferViews":[{"buffer":0,"byteLength":44424,"byteOffset":0,"name":"ScalarBufferView","target":34962},{"buffer":0,"byteLength":60656,"byteOffset":44424,"byteStride":8,"name":"Vec2BufferView","target":34962},{"buffer":0,"byteLength":181968,"byteOffset":105080,"byteStride":12,"name":"Vec3BufferView","target":34962},{"buffer":0,"byteLength":121312,"byteOffset":287048,"byteStride":16,"name":"Vec4BufferView","target":34962}],"buffers":[{"byteLength":408360,"uri":"scene.bin"}],"images":[{"uri":"textures\/ThinRing3_baseColor.jpeg"},{"uri":"textures\/ThinRing3_metallicRoughness.png"},{"uri":"textures\/ThinRing3_normal.png"},{"uri":"textures\/ThinRing2_baseColor.png"},{"uri":"textures\/ThinRing2_metallicRoughness.png"},{"uri":"textures\/ThinRing2_normal.png"},{"uri":"textures\/ThinRing2_emissive.jpeg"},{"uri":"textures\/ThinRing_baseColor.png"},{"uri":"textures\/ThinRing_metallicRoughness.png"},{"uri":"textures\/ThinRing_normal.png"},{"uri":"textures\/ThinRing_emissive.jpeg"},{"uri":"textures\/Prongs_baseColor.jpeg"},{"uri":"textures\/Prongs_metallicRoughness.png"},{"uri":"textures\/Prongs_normal.png"},{"uri":"textures\/ThinRing1_baseColor.png"},{"uri":"textures\/ThinRing1_metallicRoughness.png"},{"uri":"textures\/ThinRing1_normal.png"},{"uri":"textures\/ThinRing1_emissive.jpeg"}],"materials":[{"doubleSided":true,"emissiveFactor":[0,0,0],"name":"Prongs","normalTexture":{"index":13,"scale":1,"texCoord":0},"occlusionTexture":{"index":12,"strength":1,"texCoord":0},"pbrMetallicRoughness":{"baseColorFactor":[1,1,1,1],"baseColorTexture":{"index":11,"texCoord":0},"metallicFactor":1,"metallicRoughnessTexture":{"index":12,"texCoord":0},"roughnessFactor":1}},{"doubleSided":true,"emissiveFactor":[1,1,1],"emissiveTexture":{"index":10,"texCoord":0},"name":"ThinRing","normalTexture":{"index":9,"scale":1,"texCoord":0},"occlusionTexture":{"index":8,"strength":1,"texCoord":0},"pbrMetallicRoughness":{"baseColorFactor":[1,1,1,1],"baseColorTexture":{"index":7,"texCoord":0},"metallicFactor":1,"metallicRoughnessTexture":{"index":8,"texCoord":0},"roughnessFactor":1}},{"doubleSided":true,"emissiveFactor":[1,1,1],"emissiveTexture":{"index":17,"texCoord":0},"name":"ThinRing1","normalTexture":{"index":16,"scale":1,"texCoord":0},"occlusionTexture":{"index":15,"strength":1,"texCoord":0},"pbrMetallicRoughness":{"baseColorFactor":[1,1,1,1],"baseColorTexture":{"index":14,"texCoord":0},"metallicFactor":1,"metallicRoughnessTexture":{"index":15,"texCoord":0},"roughnessFactor":1}},{"doubleSided":true,"emissiveFactor":[1,1,1],"emissiveTexture":{"index":6,"texCoord":0},"name":"ThinRing2","normalTexture":{"index":5,"scale":1,"texCoord":0},"occlusionTexture":{"index":4,"strength":1,"texCoord":0},"pbrMetallicRoughness":{"baseColorFactor":[1,1,1,1],"baseColorTexture":{"index":3,"texCoord":0},"metallicFactor":1,"metallicRoughnessTexture":{"index":4,"texCoord":0},"roughnessFactor":1}},{"doubleSided":true,"emissiveFactor":[0,0,0],"name":"ThinRing3","normalTexture":{"index":2,"scale":1,"texCoord":0},"occlusionTexture":{"index":1,"strength":1,"texCoord":0},"pbrMetallicRoughness":{"baseColorFactor":[1,1,1,1],"baseColorTexture":{"index":0,"texCoord":0},"metallicFactor":1,"metallicRoughnessTexture":{"index":1,"texCoord":0},"roughnessFactor":1}}],"meshes":[{"name":"Prongs","primitives":[{"attributes":{"NORMAL":1,"POSITION":0,"TANGENT":3,"TEXCOORD_0":2},"indices":4,"material":0,"mode":4}]},{"name":"ThinRing","primitives":[{"attributes":{"NORMAL":6,"POSITION":5,"TANGENT":8,"TEXCOORD_0":7},"indices":9,"material":1,"mode":4}]},{"name":"ThinRing1","primitives":[{"attributes":{"NORMAL":11,"POSITION":10,"TANGENT":13,"TEXCOORD_0":12},"indices":14,"material":2,"mode":4}]},{"name":"ThinRing2","primitives":[{"attributes":{"NORMAL":16,"POSITION":15,"TANGENT":18,"TEXCOORD_0":17},"indices":19,"material":3,"mode":4}]},{"name":"ThinRing3","primitives":[{"attributes":{"NORMAL":21,"POSITION":20,"TANGENT":23,"TEXCOORD_0":22},"indices":24,"material":4,"mode":4}]}],"nodes":[{"children":[1],"name":"RootNode (gltf orientation matrix)","rotation":[-0.70710678118654746,-0,-0,0.70710678118654757]},{"children":[2],"name":"RootNode (model correction matrix)"},{"children":[3],"matrix":[1,0,0,0,0,0,1,0,0,-1,0,0,0,0,0,1],"name":"ed75af9e45164058b02cc2ade59304bb.fbx"},{"children":[4,6,8,10,12],"name":"RootNode"},{"children":[5],"matrix":[13.062073707580566,0,0,0,0,13.062073707580392,2.1280819952142697e-06,0,0,-2.1280819952142697e-06,13.062073707580392,0,0,0,0,1],"name":"Prongs"},{"mesh":0,"name":"Prongs"},{"children":[7],"matrix":[13.062073707580566,0,0,0,0,13.062073707580392,2.1280819952142697e-06,0,0,-2.1280819952142697e-06,13.062073707580392,0,0,0,0,1],"name":"ThinRing"},{"mesh":1,"name":"ThinRing"},{"children":[9],"matrix":[13.062073707580566,0,0,0,0,13.062073707580392,2.1280819952142697e-06,0,0,-2.1280819952142697e-06,13.062073707580392,0,0,0,0,1],"name":"ThinRing1"},{"mesh":2,"name":"ThinRing1"},{"children":[11],"matrix":[13.062073707580566,0,0,0,0,13.062073707580392,2.1280819952142697e-06,0,0,-2.1280819952142697e-06,13.062073707580392,0,0,0,0,1],"name":"ThinRing2"},{"mesh":3,"name":"ThinRing2"},{"children":[13],"matrix":[13.062073707580566,0,0,0,0,13.062073707580392,2.1280819952142697e-06,0,0,-2.1280819952142697e-06,13.062073707580392,0,0,0,0,1],"name":"ThinRing3"},{"mesh":4,"name":"ThinRing3"}],"samplers":[{"magFilter":9729,"minFilter":9987,"wrapS":10497,"wrapT":10497}],"scene":0,"scenes":[{"name":"OSG_Scene","nodes":[0]}],"textures":[{"sampler":0,"source":0},{"sampler":0,"source":1},{"sampler":0,"source":2},{"sampler":0,"source":3},{"sampler":0,"source":4},{"sampler":0,"source":5},{"sampler":0,"source":6},{"sampler":0,"source":7},{"sampler":0,"source":8},{"sampler":0,"source":9},{"sampler":0,"source":10},{"sampler":0,"source":11},{"sampler":0,"source":12},{"sampler":0,"source":13},{"sampler":0,"source":14},{"sampler":0,"source":15},{"sampler":0,"source":16},{"sampler":0,"source":17}]}
